<svg xmlns="http://www.w3.org/2000/svg" width="1200" height="773" viewBox="0 0 1200 773">
<rect width="100%" height="100%" fill="white"/>
<style>text{font-family:ui-monospace,monospace;font-size:13px}.axis{stroke:#57606a;stroke-width:1}.grid{stroke:#d8dee4;stroke-width:1}</style>
<text x="65" y="30" font-size="20">Major step timing: conclusion job (main, using samples)</text>
<text x="65" y="52">Steps with a sustained cost, recent slowdown, or recent regression</text>
<line class="grid" x1="65" y1="465.0" x2="1135" y2="465.0"/>
<text x="8" y="470.0">0s</text>
<line class="grid" x1="65" y1="387.0" x2="1135" y2="387.0"/>
<text x="8" y="392.0">22s</text>
<line class="grid" x1="65" y1="309.0" x2="1135" y2="309.0"/>
<text x="8" y="314.0">43s</text>
<line class="grid" x1="65" y1="231.0" x2="1135" y2="231.0"/>
<text x="8" y="236.0">65s</text>
<line class="grid" x1="65" y1="153.0" x2="1135" y2="153.0"/>
<text x="8" y="158.0">86s</text>
<line class="grid" x1="65" y1="75.0" x2="1135" y2="75.0"/>
<text x="8" y="80.0">108s</text>
<line class="grid" x1="65.0" y1="75" x2="65.0" y2="465"/>
<line class="grid" x1="198.8" y1="75" x2="198.8" y2="465"/>
<line class="grid" x1="332.5" y1="75" x2="332.5" y2="465"/>
<line class="grid" x1="466.2" y1="75" x2="466.2" y2="465"/>
<line class="grid" x1="600.0" y1="75" x2="600.0" y2="465"/>
<line class="grid" x1="733.8" y1="75" x2="733.8" y2="465"/>
<line class="grid" x1="867.5" y1="75" x2="867.5" y2="465"/>
<line class="grid" x1="1001.2" y1="75" x2="1001.2" y2="465"/>
<line class="grid" x1="1135.0" y1="75" x2="1135.0" y2="465"/>
<polyline points="65.0,396.3 66.0,403.5 68.0,331.1 68.6,399.9 68.6,403.5 71.5,389.0 77.3,399.9 81.3,389.0 104.5,367.3 104.9,392.6 109.6,399.9 118.9,389.0 128.5,374.6 137.7,211.8 146.8,399.9 155.9,363.7 165.6,331.1 175.4,378.2 185.2,139.4 193.4,363.7 204.1,349.2 213.6,403.5 223.1,345.6 232.1,378.2 251.2,399.9 254.3,367.3 261.2,410.7 270.6,392.6 277.2,399.9 289.3,378.2 298.1,410.7 308.2,414.4 318.1,403.5 325.2,410.7 336.6,403.5 341.4,403.5 356.0,414.4 365.7,385.4 375.0,414.4 379.1,410.7 392.3,403.5 403.6,385.4 413.0,403.5 422.4,414.4 429.3,403.5 435.4,367.3 435.8,378.2 441.4,338.4 448.7,287.7 458.4,356.5 467.0,342.0 479.5,370.9 488.0,334.8 498.7,367.3 508.1,370.9 515.9,378.2 517.6,352.8 688.2,385.4 697.9,410.7 707.4,367.3 715.0,414.4 726.8,331.1 736.4,331.1 744.9,349.2 754.9,407.1 773.9,396.3 802.0,313.1 811.9,367.3 830.7,389.0 839.8,110.5 849.5,276.9 858.3,356.5 868.9,331.1 878.4,352.8 887.9,298.6 897.4,302.2 897.4,363.7 906.2,360.1 914.8,211.8 918.5,356.5 925.6,378.2 934.5,291.3 934.5,370.9 944.9,378.2 949.1,378.2 949.1,327.5 973.1,182.8 991.6,345.6 1001.6,269.6 1009.3,374.6 1020.3,389.0 1021.9,389.0 1038.8,273.3 1049.4,334.8 1059.0,381.8 1067.9,389.0 1078.1,363.7 1087.7,374.6 1094.8,298.6 1105.8,370.9 1125.5,305.8 1135.0,367.3" fill="none" stroke="#0969da" stroke-width="2"><title>Set up job</title></polyline>
<line x1="802.0" y1="313.1" x2="784.0" y2="291.1" stroke="#0969da" stroke-width="1"/>
<circle cx="784.0" cy="291.1" r="11" fill="white" stroke="#0969da" stroke-width="2"><title>R1: Set up job, samples, 42.0s</title></circle>
<text x="784.0" y="295.1" fill="#0969da" font-size="10" font-weight="bold" text-anchor="middle">R1</text>
<line x1="839.8" y1="110.5" x2="857.8" y2="88.5" stroke="#0969da" stroke-width="1"/>
<circle cx="857.8" cy="88.5" r="11" fill="white" stroke="#0969da" stroke-width="2"><title>R2: Set up job, samples, 98.0s</title></circle>
<text x="857.8" y="92.5" fill="#0969da" font-size="10" font-weight="bold" text-anchor="middle">R2</text>
<line x1="914.8" y1="211.8" x2="896.8" y2="233.8" stroke="#0969da" stroke-width="1"/>
<circle cx="896.8" cy="233.8" r="11" fill="white" stroke="#0969da" stroke-width="2"><title>R3: Set up job, samples, 70.0s</title></circle>
<text x="896.8" y="237.8" fill="#0969da" font-size="10" font-weight="bold" text-anchor="middle">R3</text>
<line x1="973.1" y1="182.8" x2="991.1" y2="204.8" stroke="#0969da" stroke-width="1"/>
<circle cx="991.1" cy="204.8" r="11" fill="white" stroke="#0969da" stroke-width="2"><title>R4: Set up job, samples, 78.0s</title></circle>
<text x="991.1" y="208.8" fill="#0969da" font-size="10" font-weight="bold" text-anchor="middle">R4</text>
<line x1="1001.6" y1="269.6" x2="1001.6" y2="239.6" stroke="#0969da" stroke-width="1"/>
<circle cx="1001.6" cy="239.6" r="11" fill="white" stroke="#0969da" stroke-width="2"><title>R5: Set up job, samples, 54.0s</title></circle>
<text x="1001.6" y="243.6" fill="#0969da" font-size="10" font-weight="bold" text-anchor="middle">R5</text>
<line x1="1038.8" y1="273.3" x2="1038.8" y2="303.3" stroke="#0969da" stroke-width="1"/>
<circle cx="1038.8" cy="303.3" r="11" fill="white" stroke="#0969da" stroke-width="2"><title>R6: Set up job, samples, 53.0s</title></circle>
<text x="1038.8" y="307.3" fill="#0969da" font-size="10" font-weight="bold" text-anchor="middle">R6</text>
<line x1="1094.8" y1="298.6" x2="1076.8" y2="276.6" stroke="#0969da" stroke-width="1"/>
<circle cx="1076.8" cy="276.6" r="11" fill="white" stroke="#0969da" stroke-width="2"><title>R7: Set up job, samples, 46.0s</title></circle>
<text x="1076.8" y="280.6" fill="#0969da" font-size="10" font-weight="bold" text-anchor="middle">R7</text>
<line x1="1125.5" y1="305.8" x2="1124.0" y2="283.8" stroke="#0969da" stroke-width="1"/>
<circle cx="1124.0" cy="283.8" r="11" fill="white" stroke="#0969da" stroke-width="2"><title>R8: Set up job, samples, 44.0s</title></circle>
<text x="1124.0" y="287.8" fill="#0969da" font-size="10" font-weight="bold" text-anchor="middle">R8</text>
<line x1="65" y1="521" x2="100" y2="521" stroke="#0969da" stroke-width="3"/>
<text x="110" y="525">Set up job</text>
<text x="65.0" y="490" text-anchor="start">2026-06-18</text>
<text x="198.8" y="490" text-anchor="middle">2026-07-02</text>
<text x="332.5" y="490" text-anchor="middle">2026-07-16</text>
<text x="466.2" y="490" text-anchor="middle">2026-07-30</text>
<text x="600.0" y="490" text-anchor="middle">2026-08-13</text>
<text x="733.8" y="490" text-anchor="middle">2026-08-27</text>
<text x="867.5" y="490" text-anchor="middle">2026-09-10</text>
<text x="1001.2" y="490" text-anchor="middle">2026-09-25</text>
<text x="1135.0" y="490" text-anchor="end">2026-10-09</text>
<line class="axis" x1="65" y1="465" x2="1135" y2="465"/>
<text x="65" y="565" font-size="16" font-weight="bold">Regression episodes</text>
<text x="65" y="593" fill="#0969da" font-weight="bold">R1</text>
<text x="99" y="593">2026-09-04  Set up job / samples  +71%</text>
<text x="65" y="615" fill="#0969da" font-weight="bold">R2</text>
<text x="99" y="615">2026-09-08 to 2026-09-09  Set up job / samples  +263%</text>
<text x="65" y="637" fill="#0969da" font-weight="bold">R3</text>
<text x="99" y="637">2026-09-13 to 2026-09-18  Set up job / samples  +106%</text>
<text x="65" y="659" fill="#0969da" font-weight="bold">R4</text>
<text x="99" y="659">2026-09-22  Set up job / samples  +174%</text>
<text x="65" y="681" fill="#0969da" font-weight="bold">R5</text>
<text x="99" y="681">2026-09-25  Set up job / samples  +71%</text>
<text x="65" y="703" fill="#0969da" font-weight="bold">R6</text>
<text x="99" y="703">2026-09-29  Set up job / samples  +108%</text>
<text x="65" y="725" fill="#0969da" font-weight="bold">R7</text>
<text x="99" y="725">2026-10-04  Set up job / samples  +84%</text>
<text x="65" y="747" fill="#0969da" font-weight="bold">R8</text>
<text x="99" y="747">2026-10-08  Set up job / samples  +73%</text>
</svg>