<svg xmlns="http://www.w3.org/2000/svg" width="1200" height="619" viewBox="0 0 1200 619">
<rect width="100%" height="100%" fill="white"/>
<style>text{font-family:ui-monospace,monospace;font-size:13px}.axis{stroke:#57606a;stroke-width:1}.grid{stroke:#d8dee4;stroke-width:1}</style>
<text x="65" y="30" font-size="20">Step timing: conclusion job (inference)</text>
<text x="65" y="52">Steps with a sustained cost, recent slowdown, or recent regression</text>
<line class="grid" x1="65" y1="465.0" x2="1135" y2="465.0"/>
<text x="8" y="470.0">0s</text>
<line class="grid" x1="65" y1="387.0" x2="1135" y2="387.0"/>
<text x="8" y="392.0">7s</text>
<line class="grid" x1="65" y1="309.0" x2="1135" y2="309.0"/>
<text x="8" y="314.0">14s</text>
<line class="grid" x1="65" y1="231.0" x2="1135" y2="231.0"/>
<text x="8" y="236.0">21s</text>
<line class="grid" x1="65" y1="153.0" x2="1135" y2="153.0"/>
<text x="8" y="158.0">28s</text>
<line class="grid" x1="65" y1="75.0" x2="1135" y2="75.0"/>
<text x="8" y="80.0">35s</text>
<line class="grid" x1="65.0" y1="75" x2="65.0" y2="465"/>
<line class="grid" x1="198.8" y1="75" x2="198.8" y2="465"/>
<line class="grid" x1="332.5" y1="75" x2="332.5" y2="465"/>
<line class="grid" x1="466.2" y1="75" x2="466.2" y2="465"/>
<line class="grid" x1="600.0" y1="75" x2="600.0" y2="465"/>
<line class="grid" x1="733.8" y1="75" x2="733.8" y2="465"/>
<line class="grid" x1="867.5" y1="75" x2="867.5" y2="465"/>
<line class="grid" x1="1001.2" y1="75" x2="1001.2" y2="465"/>
<line class="grid" x1="1135.0" y1="75" x2="1135.0" y2="465"/>
<polyline points="65.0,442.8 119.8,431.8 237.9,442.8 1020.9,199.1 1045.6,110.5 1135.0,321.0" fill="none" stroke="#0969da" stroke-width="2"><title>Set up job</title></polyline>
<line x1="1135.0" y1="321.0" x2="1117.0" y2="299.0" stroke="#0969da" stroke-width="1"/>
<circle cx="1117.0" cy="299.0" r="11" fill="white" stroke="#0969da" stroke-width="2"><title>R1: Set up job, inference, 13.0s</title></circle>
<text x="1117.0" y="303.0" fill="#0969da" font-size="10" font-weight="bold" text-anchor="middle">R1</text>
<line x1="65" y1="521" x2="100" y2="521" stroke="#0969da" stroke-width="3"/>
<text x="110" y="525">Set up job</text>
<text x="65.0" y="490" text-anchor="start">2026-04-10</text>
<text x="198.8" y="490" text-anchor="middle">2026-04-20</text>
<text x="332.5" y="490" text-anchor="middle">2026-05-01</text>
<text x="466.2" y="490" text-anchor="middle">2026-05-11</text>
<text x="600.0" y="490" text-anchor="middle">2026-05-21</text>
<text x="733.8" y="490" text-anchor="middle">2026-05-31</text>
<text x="867.5" y="490" text-anchor="middle">2026-06-10</text>
<text x="1001.2" y="490" text-anchor="middle">2026-06-20</text>
<text x="1135.0" y="490" text-anchor="end">2026-06-30</text>
<line class="axis" x1="65" y1="465" x2="1135" y2="465"/>
<text x="65" y="565" font-size="16" font-weight="bold">Regression episodes</text>
<text x="65" y="593" fill="#0969da" font-weight="bold">R1</text>
<text x="99" y="593">2026-06-30  Set up job / inference  +333%</text>
</svg>