<svg xmlns="http://www.w3.org/2000/svg" width="1200" height="663" viewBox="0 0 1200 663">
<rect width="100%" height="100%" fill="white"/>
<style>text{font-family:ui-monospace,monospace;font-size:13px}.axis{stroke:#57606a;stroke-width:1}.grid{stroke:#d8dee4;stroke-width:1}</style>
<text x="65" y="30" font-size="20">Major step timing: activation job (main, using samples)</text>
<text x="65" y="52">Steps with a sustained cost, recent slowdown, or recent regression</text>
<line class="grid" x1="65" y1="465.0" x2="1135" y2="465.0"/>
<text x="8" y="470.0">0s</text>
<line class="grid" x1="65" y1="387.0" x2="1135" y2="387.0"/>
<text x="8" y="392.0">24s</text>
<line class="grid" x1="65" y1="309.0" x2="1135" y2="309.0"/>
<text x="8" y="314.0">49s</text>
<line class="grid" x1="65" y1="231.0" x2="1135" y2="231.0"/>
<text x="8" y="236.0">73s</text>
<line class="grid" x1="65" y1="153.0" x2="1135" y2="153.0"/>
<text x="8" y="158.0">98s</text>
<line class="grid" x1="65" y1="75.0" x2="1135" y2="75.0"/>
<text x="8" y="80.0">122s</text>
<line class="grid" x1="65.0" y1="75" x2="65.0" y2="465"/>
<line class="grid" x1="198.8" y1="75" x2="198.8" y2="465"/>
<line class="grid" x1="332.5" y1="75" x2="332.5" y2="465"/>
<line class="grid" x1="466.2" y1="75" x2="466.2" y2="465"/>
<line class="grid" x1="600.0" y1="75" x2="600.0" y2="465"/>
<line class="grid" x1="733.8" y1="75" x2="733.8" y2="465"/>
<line class="grid" x1="867.5" y1="75" x2="867.5" y2="465"/>
<line class="grid" x1="1001.2" y1="75" x2="1001.2" y2="465"/>
<line class="grid" x1="1135.0" y1="75" x2="1135.0" y2="465"/>
<polyline points="65.0,343.6 66.2,401.1 68.5,391.5 69.2,366.0 69.2,394.7 72.6,382.0 79.5,372.4 84.2,366.0 111.5,321.3 112.1,318.1 117.5,378.8 128.5,337.2 139.9,359.6 150.7,372.4 161.4,330.8 172.1,369.2 183.5,366.0 195.1,378.8 206.6,295.7 216.2,343.6 229.0,388.3 240.1,359.6 251.3,391.5 261.9,388.3 284.3,372.4 288.0,382.0 296.1,394.7 307.2,318.1 315.0,327.7 329.2,391.5 339.7,350.0 351.5,362.8 363.2,330.8 371.6,353.2 385.1,382.0 390.7,375.6 407.8,391.5 419.3,164.8 430.3,362.8 435.1,397.9 450.6,353.2 464.0,385.1 475.1,385.1 486.1,391.5 494.2,366.0 501.5,340.4 501.9,318.1 508.5,337.2 517.2,362.8 528.5,350.0 538.6,350.0 553.5,337.2 563.4,346.8 576.0,369.2 587.2,311.7 596.4,362.8 598.3,356.4 799.3,330.8 810.7,404.3 821.9,397.9 830.9,356.4 844.8,353.2 856.1,401.1 866.1,397.9 878.0,362.8 900.3,238.2 933.4,353.2 945.1,231.8 967.2,311.7 978.0,369.2 989.4,340.4 999.7,327.7 1012.3,388.3 1023.4,308.5 1034.6,401.1 1045.8,372.4 1045.8,257.4 1056.2,382.0 1066.4,110.5 1070.7,350.0 1079.1,375.6 1089.5,397.9 1089.5,302.1 1101.8,401.1 1106.8,372.4 1106.8,346.8 1135.0,394.7" fill="none" stroke="#0969da" stroke-width="2"><title>Set up job</title></polyline>
<line x1="900.3" y1="238.2" x2="882.3" y2="216.2" stroke="#0969da" stroke-width="1"/>
<circle cx="882.3" cy="216.2" r="11" fill="white" stroke="#0969da" stroke-width="2"><title>R1: Set up job, samples, 71.0s</title></circle>
<text x="882.3" y="220.2" fill="#0969da" font-size="10" font-weight="bold" text-anchor="middle">R1</text>
<line x1="945.1" y1="231.8" x2="963.1" y2="209.8" stroke="#0969da" stroke-width="1"/>
<circle cx="963.1" cy="209.8" r="11" fill="white" stroke="#0969da" stroke-width="2"><title>R2: Set up job, samples, 73.0s</title></circle>
<text x="963.1" y="213.8" fill="#0969da" font-size="10" font-weight="bold" text-anchor="middle">R2</text>
<line x1="1066.4" y1="110.5" x2="1048.4" y2="132.5" stroke="#0969da" stroke-width="1"/>
<circle cx="1048.4" cy="132.5" r="11" fill="white" stroke="#0969da" stroke-width="2"><title>R3: Set up job, samples, 111.0s</title></circle>
<text x="1048.4" y="136.5" fill="#0969da" font-size="10" font-weight="bold" text-anchor="middle">R3</text>
<line x1="65" y1="521" x2="100" y2="521" stroke="#0969da" stroke-width="3"/>
<text x="110" y="525">Set up job</text>
<text x="65.0" y="490" text-anchor="start">2026-06-18</text>
<text x="198.8" y="490" text-anchor="middle">2026-06-30</text>
<text x="332.5" y="490" text-anchor="middle">2026-07-12</text>
<text x="466.2" y="490" text-anchor="middle">2026-07-24</text>
<text x="600.0" y="490" text-anchor="middle">2026-08-05</text>
<text x="733.8" y="490" text-anchor="middle">2026-08-17</text>
<text x="867.5" y="490" text-anchor="middle">2026-08-29</text>
<text x="1001.2" y="490" text-anchor="middle">2026-09-10</text>
<text x="1135.0" y="490" text-anchor="end">2026-09-22</text>
<line class="axis" x1="65" y1="465" x2="1135" y2="465"/>
<text x="65" y="565" font-size="16" font-weight="bold">Regression episodes</text>
<text x="65" y="593" fill="#0969da" font-weight="bold">R1</text>
<text x="99" y="593">2026-09-01  Set up job / samples  +122%</text>
<text x="65" y="615" fill="#0969da" font-weight="bold">R2</text>
<text x="99" y="615">2026-09-05  Set up job / samples  +121%</text>
<text x="65" y="637" fill="#0969da" font-weight="bold">R3</text>
<text x="99" y="637">2026-09-14 to 2026-09-18  Set up job / samples  +222%</text>
</svg>