<svg xmlns="http://www.w3.org/2000/svg" width="1200" height="641" viewBox="0 0 1200 641">
<rect width="100%" height="100%" fill="white"/>
<style>text{font-family:ui-monospace,monospace;font-size:13px}.axis{stroke:#57606a;stroke-width:1}.grid{stroke:#d8dee4;stroke-width:1}</style>
<text x="65" y="30" font-size="20">Major step timing: conclusion job (main, using inference)</text>
<text x="65" y="52">Steps with a sustained cost, recent slowdown, or recent regression</text>
<line class="grid" x1="65" y1="465.0" x2="1135" y2="465.0"/>
<text x="8" y="470.0">0s</text>
<line class="grid" x1="65" y1="387.0" x2="1135" y2="387.0"/>
<text x="8" y="392.0">25s</text>
<line class="grid" x1="65" y1="309.0" x2="1135" y2="309.0"/>
<text x="8" y="314.0">49s</text>
<line class="grid" x1="65" y1="231.0" x2="1135" y2="231.0"/>
<text x="8" y="236.0">74s</text>
<line class="grid" x1="65" y1="153.0" x2="1135" y2="153.0"/>
<text x="8" y="158.0">99s</text>
<line class="grid" x1="65" y1="75.0" x2="1135" y2="75.0"/>
<text x="8" y="80.0">123s</text>
<line class="grid" x1="65.0" y1="75" x2="65.0" y2="465"/>
<line class="grid" x1="198.8" y1="75" x2="198.8" y2="465"/>
<line class="grid" x1="332.5" y1="75" x2="332.5" y2="465"/>
<line class="grid" x1="466.2" y1="75" x2="466.2" y2="465"/>
<line class="grid" x1="600.0" y1="75" x2="600.0" y2="465"/>
<line class="grid" x1="733.8" y1="75" x2="733.8" y2="465"/>
<line class="grid" x1="867.5" y1="75" x2="867.5" y2="465"/>
<line class="grid" x1="1001.2" y1="75" x2="1001.2" y2="465"/>
<line class="grid" x1="1135.0" y1="75" x2="1135.0" y2="465"/>
<polyline points="65.0,411.2 77.3,392.2 87.2,398.5 101.4,408.0 108.3,389.0 113.6,398.5 114.6,332.0 119.5,395.4 149.2,417.5 159.5,420.7 170.5,414.4 181.0,395.4 191.3,347.9 211.8,385.9 223.3,328.9 230.4,338.4 241.9,420.7 254.3,376.4 274.2,411.2 285.2,379.5 294.8,376.4 306.5,360.5 315.7,382.7 327.3,354.2 338.5,389.0 349.8,389.0 360.0,335.2 370.6,417.5 378.0,281.4 392.1,420.7 402.3,382.7 411.2,389.0 419.9,417.5 434.5,373.2 441.9,382.7 454.8,376.4 465.9,420.7 475.7,366.9 486.3,414.4 497.4,411.2 508.1,360.5 517.6,335.2 529.0,351.0 539.9,325.7 551.0,278.2 561.5,347.9 572.1,373.2 593.3,354.2 603.3,370.0 613.2,373.2 623.1,408.0 646.0,347.9 654.4,379.5 665.7,370.0 675.8,363.7 688.4,417.5 698.6,373.2 709.6,398.5 719.0,404.9 730.7,313.1 741.2,408.0 753.3,363.7 763.8,366.9 774.5,392.2 785.1,366.9 793.6,382.7 806.7,376.4 817.4,360.5 826.8,344.7 837.6,363.7 859.0,347.9 869.6,366.9 880.8,357.4 890.4,351.0 901.3,347.9 911.7,395.4 922.2,351.0 932.4,351.0 943.2,366.9 952.9,373.2 964.6,376.4 975.3,313.1 985.9,338.4 996.4,335.2 996.4,316.2 1006.3,338.4 1015.9,294.1 1020.0,344.7 1027.9,110.5 1037.7,370.0 1037.7,335.2 1042.3,332.0 1054.0,357.4 1054.0,347.9 1080.7,382.7 1101.3,360.5 1112.4,319.4 1121.0,313.1 1133.2,379.5 1135.0,360.5" fill="none" stroke="#0969da" stroke-width="2"><title>Set up job</title></polyline>
<line x1="730.7" y1="313.1" x2="712.7" y2="291.1" stroke="#0969da" stroke-width="1"/>
<circle cx="712.7" cy="291.1" r="11" fill="white" stroke="#0969da" stroke-width="2"><title>R1: Set up job, inference, 48.0s</title></circle>
<text x="712.7" y="295.1" fill="#0969da" font-size="10" font-weight="bold" text-anchor="middle">R1</text>
<line x1="1027.9" y1="110.5" x2="1045.9" y2="88.5" stroke="#0969da" stroke-width="1"/>
<circle cx="1045.9" cy="88.5" r="11" fill="white" stroke="#0969da" stroke-width="2"><title>R2: Set up job, inference, 112.0s</title></circle>
<text x="1045.9" y="92.5" fill="#0969da" font-size="10" font-weight="bold" text-anchor="middle">R2</text>
<line x1="65" y1="521" x2="100" y2="521" stroke="#0969da" stroke-width="3"/>
<text x="110" y="525">Set up job</text>
<text x="65.0" y="490" text-anchor="start">2026-06-18</text>
<text x="198.8" y="490" text-anchor="middle">2026-06-30</text>
<text x="332.5" y="490" text-anchor="middle">2026-07-13</text>
<text x="466.2" y="490" text-anchor="middle">2026-07-25</text>
<text x="600.0" y="490" text-anchor="middle">2026-08-07</text>
<text x="733.8" y="490" text-anchor="middle">2026-08-20</text>
<text x="867.5" y="490" text-anchor="middle">2026-09-01</text>
<text x="1001.2" y="490" text-anchor="middle">2026-09-14</text>
<text x="1135.0" y="490" text-anchor="end">2026-09-27</text>
<line class="axis" x1="65" y1="465" x2="1135" y2="465"/>
<text x="65" y="565" font-size="16" font-weight="bold">Regression episodes</text>
<text x="65" y="593" fill="#0969da" font-weight="bold">R1</text>
<text x="99" y="593">2026-08-19  Set up job / inference  +71%</text>
<text x="65" y="615" fill="#0969da" font-weight="bold">R2</text>
<text x="99" y="615">2026-09-17  Set up job / inference  +180%</text>
</svg>