<svg xmlns="http://www.w3.org/2000/svg" width="1200" height="685" viewBox="0 0 1200 685">
<rect width="100%" height="100%" fill="white"/>
<style>text{font-family:ui-monospace,monospace;font-size:13px}.axis{stroke:#57606a;stroke-width:1}.grid{stroke:#d8dee4;stroke-width:1}</style>
<text x="65" y="30" font-size="20">Major step timing: conclusion job (released, using inference)</text>
<text x="65" y="52">Steps with a sustained cost, recent slowdown, or recent regression</text>
<line class="grid" x1="65" y1="465.0" x2="1135" y2="465.0"/>
<text x="8" y="470.0">0s</text>
<line class="grid" x1="65" y1="387.0" x2="1135" y2="387.0"/>
<text x="8" y="392.0">14s</text>
<line class="grid" x1="65" y1="309.0" x2="1135" y2="309.0"/>
<text x="8" y="314.0">29s</text>
<line class="grid" x1="65" y1="231.0" x2="1135" y2="231.0"/>
<text x="8" y="236.0">43s</text>
<line class="grid" x1="65" y1="153.0" x2="1135" y2="153.0"/>
<text x="8" y="158.0">57s</text>
<line class="grid" x1="65" y1="75.0" x2="1135" y2="75.0"/>
<text x="8" y="80.0">72s</text>
<line class="grid" x1="65.0" y1="75" x2="65.0" y2="465"/>
<line class="grid" x1="198.8" y1="75" x2="198.8" y2="465"/>
<line class="grid" x1="332.5" y1="75" x2="332.5" y2="465"/>
<line class="grid" x1="466.2" y1="75" x2="466.2" y2="465"/>
<line class="grid" x1="600.0" y1="75" x2="600.0" y2="465"/>
<line class="grid" x1="733.8" y1="75" x2="733.8" y2="465"/>
<line class="grid" x1="867.5" y1="75" x2="867.5" y2="465"/>
<line class="grid" x1="1001.2" y1="75" x2="1001.2" y2="465"/>
<line class="grid" x1="1135.0" y1="75" x2="1135.0" y2="465"/>
<polyline points="65.0,454.1 98.3,448.6 170.1,454.1 646.4,334.1 661.4,290.5 677.6,350.5 684.5,328.6 686.1,394.1 705.8,334.1 715.8,394.1 730.1,339.5 767.7,110.5 774.3,323.2 776.0,306.8 776.9,208.6 781.7,394.1 799.5,366.8 818.2,317.7 838.8,394.1 843.2,372.3 847.1,317.7 874.7,306.8 879.4,334.1 890.0,399.5 896.8,366.8 902.9,323.2 912.8,383.2 928.0,388.6 944.3,274.1 947.7,394.1 961.6,328.6 967.8,328.6 982.7,246.8 995.0,345.0 1020.4,361.4 1050.6,334.1 1083.0,355.9 1085.6,263.2 1108.2,383.2 1124.8,159.5 1135.0,274.1" fill="none" stroke="#0969da" stroke-width="2"><title>Set up job</title></polyline>
<line x1="944.3" y1="274.1" x2="926.3" y2="252.1" stroke="#0969da" stroke-width="1"/>
<circle cx="926.3" cy="252.1" r="11" fill="white" stroke="#0969da" stroke-width="2"><title>R1: Set up job, inference, 35.0s</title></circle>
<text x="926.3" y="256.1" fill="#0969da" font-size="10" font-weight="bold" text-anchor="middle">R1</text>
<line x1="982.7" y1="246.8" x2="1000.7" y2="224.8" stroke="#0969da" stroke-width="1"/>
<circle cx="1000.7" cy="224.8" r="11" fill="white" stroke="#0969da" stroke-width="2"><title>R2: Set up job, inference, 40.0s</title></circle>
<text x="1000.7" y="228.8" fill="#0969da" font-size="10" font-weight="bold" text-anchor="middle">R2</text>
<line x1="1085.6" y1="263.2" x2="1067.6" y2="285.2" stroke="#0969da" stroke-width="1"/>
<circle cx="1067.6" cy="285.2" r="11" fill="white" stroke="#0969da" stroke-width="2"><title>R3: Set up job, inference, 37.0s</title></circle>
<text x="1067.6" y="289.2" fill="#0969da" font-size="10" font-weight="bold" text-anchor="middle">R3</text>
<line x1="1124.8" y1="159.5" x2="1124.0" y2="181.5" stroke="#0969da" stroke-width="1"/>
<circle cx="1124.0" cy="181.5" r="11" fill="white" stroke="#0969da" stroke-width="2"><title>R4: Set up job, inference, 56.0s</title></circle>
<text x="1124.0" y="185.5" fill="#0969da" font-size="10" font-weight="bold" text-anchor="middle">R4</text>
<line x1="65" y1="521" x2="100" y2="521" stroke="#0969da" stroke-width="3"/>
<text x="110" y="525">Set up job</text>
<text x="65.0" y="490" text-anchor="start">2026-04-10</text>
<text x="198.8" y="490" text-anchor="middle">2026-04-27</text>
<text x="332.5" y="490" text-anchor="middle">2026-05-14</text>
<text x="466.2" y="490" text-anchor="middle">2026-05-30</text>
<text x="600.0" y="490" text-anchor="middle">2026-06-16</text>
<text x="733.8" y="490" text-anchor="middle">2026-07-03</text>
<text x="867.5" y="490" text-anchor="middle">2026-07-19</text>
<text x="1001.2" y="490" text-anchor="middle">2026-08-05</text>
<text x="1135.0" y="490" text-anchor="end">2026-08-22</text>
<line class="axis" x1="65" y1="465" x2="1135" y2="465"/>
<text x="65" y="565" font-size="16" font-weight="bold">Regression episodes</text>
<text x="65" y="593" fill="#0969da" font-weight="bold">R1</text>
<text x="99" y="593">2026-07-29  Set up job / inference  +100%</text>
<text x="65" y="615" fill="#0969da" font-weight="bold">R2</text>
<text x="99" y="615">2026-08-03  Set up job / inference  +90%</text>
<text x="65" y="637" fill="#0969da" font-weight="bold">R3</text>
<text x="99" y="637">2026-08-16  Set up job / inference  +61%</text>
<text x="65" y="659" fill="#0969da" font-weight="bold">R4</text>
<text x="99" y="659">2026-08-20  Set up job / inference  +143%</text>
</svg>