<svg xmlns="http://www.w3.org/2000/svg" width="1200" height="905" viewBox="0 0 1200 905">
<rect width="100%" height="100%" fill="white"/>
<style>text{font-family:ui-monospace,monospace;font-size:13px}.axis{stroke:#57606a;stroke-width:1}.grid{stroke:#d8dee4;stroke-width:1}</style>
<text x="65" y="30" font-size="20">Major step timing: agent job (main, using inference)</text>
<text x="65" y="52">Steps with a sustained cost, recent slowdown, or recent regression</text>
<line class="grid" x1="65" y1="465.0" x2="1135" y2="465.0"/>
<text x="8" y="470.0">0s</text>
<line class="grid" x1="65" y1="387.0" x2="1135" y2="387.0"/>
<text x="8" y="392.0">27s</text>
<line class="grid" x1="65" y1="309.0" x2="1135" y2="309.0"/>
<text x="8" y="314.0">53s</text>
<line class="grid" x1="65" y1="231.0" x2="1135" y2="231.0"/>
<text x="8" y="236.0">80s</text>
<line class="grid" x1="65" y1="153.0" x2="1135" y2="153.0"/>
<text x="8" y="158.0">106s</text>
<line class="grid" x1="65" y1="75.0" x2="1135" y2="75.0"/>
<text x="8" y="80.0">133s</text>
<line class="grid" x1="65.0" y1="75" x2="65.0" y2="465"/>
<line class="grid" x1="198.8" y1="75" x2="198.8" y2="465"/>
<line class="grid" x1="332.5" y1="75" x2="332.5" y2="465"/>
<line class="grid" x1="466.2" y1="75" x2="466.2" y2="465"/>
<line class="grid" x1="600.0" y1="75" x2="600.0" y2="465"/>
<line class="grid" x1="733.8" y1="75" x2="733.8" y2="465"/>
<line class="grid" x1="867.5" y1="75" x2="867.5" y2="465"/>
<line class="grid" x1="1001.2" y1="75" x2="1001.2" y2="465"/>
<line class="grid" x1="1135.0" y1="75" x2="1135.0" y2="465"/>
<polyline points="143.3,408.1 152.9,419.1 163.1,413.4 172.8,419.9 182.4,425.6 201.4,433.9 212.2,437.2 218.8,439.1 229.4,439.3 240.9,433.7 259.5,437.8 269.7,437.2 278.6,435.9 289.5,433.9 298.1,439.3 308.8,430.5 319.2,425.8 329.7,432.7 339.2,428.5 349.1,436.5 355.9,437.2 369.1,429.6 378.5,435.8 386.8,434.4 394.9,432.0 408.5,439.0 415.3,429.8 427.3,421.5 437.7,428.7 446.7,429.0 456.6,429.3 466.9,421.2 476.9,432.6 485.7,424.3 496.3,423.2 506.4,431.1 516.8,427.3 526.5,431.1 536.4,430.8 556.1,427.0 565.4,411.0 574.6,424.2 583.8,429.4 605.1,423.4 612.9,420.4 623.3,430.6 632.8,396.9 644.5,417.6 654.0,420.8 664.2,407.9 673.0,417.3 683.8,415.5 693.5,416.0 704.8,424.5 714.5,418.5 724.5,423.0 734.4,423.5 742.2,419.5 754.4,419.5 764.4,425.3 773.1,416.2 783.1,420.6 803.0,422.1 812.9,383.2 823.3,410.4 832.2,412.9 842.4,393.7 852.0,408.3 861.8,415.3 871.3,426.9 881.3,391.0 890.4,407.8 901.2,412.1 911.2,415.8 921.0,432.1 930.8,418.9 930.8,420.5 940.0,426.9 948.9,424.4 952.7,423.2 960.0,427.5 969.2,426.9 969.2,430.5 973.5,423.9 984.3,409.5 984.3,423.1 1009.1,426.2 1028.3,408.0 1038.6,424.0 1046.6,426.3 1057.9,404.7 1059.6,412.1 1077.1,424.0 1088.0,428.9 1097.9,371.6 1107.1,401.1 1117.6,415.1 1127.6,417.1 1135.0,417.8" fill="none" stroke="#0969da" stroke-width="2"><title>Copilot phase — AWF startup</title></polyline>
<line x1="812.9" y1="383.2" x2="794.9" y2="361.2" stroke="#0969da" stroke-width="1"/>
<circle cx="794.9" cy="361.2" r="11" fill="white" stroke="#0969da" stroke-width="2"><title>R1: Copilot phase — AWF startup, inference, 27.9s</title></circle>
<text x="794.9" y="365.2" fill="#0969da" font-size="10" font-weight="bold" text-anchor="middle">R1</text>
<line x1="1097.9" y1="371.6" x2="1097.9" y2="401.6" stroke="#0969da" stroke-width="1"/>
<circle cx="1097.9" cy="401.6" r="11" fill="white" stroke="#0969da" stroke-width="2"><title>R6: Copilot phase — AWF startup, inference, 31.9s</title></circle>
<text x="1097.9" y="405.6" fill="#0969da" font-size="10" font-weight="bold" text-anchor="middle">R6</text>
<line x1="65" y1="521" x2="100" y2="521" stroke="#0969da" stroke-width="3"/>
<text x="110" y="525">Copilot phase — AWF startup</text>
<polyline points="143.3,437.4 152.9,436.9 163.1,438.2 172.8,437.1 182.4,437.9 201.4,439.5 212.2,442.9 218.8,438.1 229.4,440.4 240.9,439.9 259.5,441.8 269.7,438.7 278.6,442.0 289.5,440.9 298.1,442.7 308.8,434.6 319.2,434.2 329.7,438.9 339.2,438.4 349.1,435.4 355.9,439.8 369.1,439.7 378.5,427.4 386.8,435.8 394.9,439.3 408.5,425.4 415.3,440.8 427.3,440.3 437.7,438.8 446.7,440.8 456.6,434.8 466.9,445.1 476.9,448.6 485.7,449.5 496.3,445.9 506.4,449.1 516.8,445.4 526.5,446.0 536.4,449.6 556.1,445.8 565.4,429.2 574.6,449.4 583.8,448.7 605.1,444.8 612.9,442.6 623.3,449.5 632.8,445.3 644.5,448.0 654.0,449.3 664.2,449.6 673.0,447.7 683.8,445.4 693.5,450.2 704.8,444.2 714.5,446.7 724.5,445.1 734.4,446.2 742.2,446.1 754.4,446.9 764.4,447.4 773.1,447.8 783.1,449.3 803.0,451.2 812.9,437.3 823.3,448.2 832.2,448.5 842.4,446.6 852.0,447.9 861.8,445.5 871.3,446.8 881.3,448.4 890.4,444.2 901.2,440.4 911.2,446.2 921.0,448.0 930.8,448.6 930.8,444.0 940.0,447.5 948.9,448.6 952.7,445.8 960.0,441.7 969.2,449.0 969.2,451.0 973.5,449.4 984.3,448.8 984.3,450.7 1009.1,447.0 1028.3,446.7 1038.6,448.5 1046.6,448.9 1057.9,447.3 1059.6,447.4 1077.1,446.0 1088.0,443.5 1097.9,443.1 1107.1,449.2 1117.6,450.4 1127.6,449.4 1135.0,445.9" fill="none" stroke="#cf222e" stroke-width="2"><title>Copilot phase — Copilot process</title></polyline>
<line x1="65" y1="543" x2="100" y2="543" stroke="#cf222e" stroke-width="3"/>
<text x="110" y="547">Copilot phase — Copilot process</text>
<polyline points="143.3,461.4 152.9,459.8 163.1,453.8 172.8,459.2 182.4,451.0 201.4,460.4 212.2,460.1 218.8,453.4 229.4,461.8 240.9,461.9 259.5,453.7 269.7,463.3 278.6,457.5 289.5,463.4 298.1,461.4 308.8,456.3 319.2,454.4 329.7,463.0 339.2,451.7 349.1,461.7 355.9,459.5 369.1,453.0 378.5,463.0 386.8,454.6 394.9,454.9 408.5,462.9 415.3,452.8 427.3,453.4 437.7,459.9 446.7,461.7 456.6,452.5 466.9,461.9 476.9,459.4 485.7,461.9 496.3,454.5 506.4,459.3 516.8,459.6 526.5,461.1 536.4,462.1 556.1,458.7 565.4,451.5 574.6,454.9 583.8,457.6 605.1,461.7 612.9,457.5 623.3,460.0 632.8,446.3 644.5,445.2 654.0,449.7 664.2,454.6 673.0,456.9 683.8,448.0 693.5,459.4 704.8,463.0 714.5,455.9 724.5,461.6 734.4,461.2 742.2,463.3 754.4,462.3 764.4,460.2 773.1,458.8 783.1,450.6 803.0,459.2 812.9,446.6 823.3,452.7 832.2,458.4 842.4,457.0 852.0,461.8 861.8,458.3 871.3,462.2 881.3,446.8 890.4,457.7 901.2,459.2 911.2,461.7 921.0,462.7 930.8,460.0 930.8,461.1 940.0,461.1 948.9,462.0 952.7,461.0 960.0,460.1 969.2,461.4 969.2,461.7 973.5,460.1 984.3,460.5 984.3,462.3 1009.1,459.8 1028.3,446.7 1038.6,455.4 1046.6,457.3 1057.9,454.4 1059.6,453.7 1077.1,461.0 1088.0,458.6 1097.9,449.1 1107.1,454.9 1117.6,457.1 1127.6,460.6 1135.0,456.8" fill="none" stroke="#1a7f37" stroke-width="2"><title>Copilot phase — harness startup</title></polyline>
<line x1="65" y1="565" x2="100" y2="565" stroke="#1a7f37" stroke-width="3"/>
<text x="110" y="569">Copilot phase — harness startup</text>
<polyline points="65.0,441.6 76.4,438.6 85.7,432.8 98.8,438.6 105.3,435.7 110.1,418.1 111.1,438.6 115.7,438.6 143.3,412.3 152.9,429.8 163.1,409.3 172.8,409.3 182.4,426.9 201.4,418.1 212.2,432.8 218.8,429.8 229.4,435.7 240.9,429.8 259.5,432.8 269.7,429.8 278.6,429.8 289.5,429.8 298.1,432.8 308.8,409.3 319.2,403.5 329.7,412.3 339.2,400.5 349.1,429.8 355.9,432.8 369.1,432.8 378.5,432.8 386.8,432.8 394.9,426.9 408.5,432.8 415.3,429.8 427.3,426.9 437.7,429.8 446.7,429.8 456.6,429.8 466.9,426.9 476.9,432.8 485.7,424.0 496.3,432.8 506.4,435.7 516.8,432.8 526.5,432.8 536.4,435.7 556.1,429.8 565.4,394.7 574.6,412.3 583.8,438.6 605.1,409.3 612.9,435.7 623.3,438.6 632.8,435.7 644.5,447.4 654.0,450.3 664.2,450.3 673.0,453.3 683.8,453.3 693.5,438.6 704.8,429.8 714.5,432.8 724.5,435.7 734.4,435.7 742.2,438.6 754.4,441.6 764.4,438.6 773.1,435.7 783.1,438.6 803.0,441.6 812.9,394.7 823.3,438.6 832.2,432.8 842.4,429.8 852.0,441.6 861.8,435.7 871.3,429.8 881.3,453.3 890.4,429.8 901.2,435.7 911.2,424.0 921.0,438.6 930.8,435.7 930.8,438.6 940.0,435.7 948.9,424.0 952.7,424.0 960.0,438.6 969.2,435.7 969.2,432.8 973.5,435.7 984.3,438.6 984.3,412.3 1009.1,432.8 1028.3,400.5 1038.6,435.7 1046.6,429.8 1057.9,435.7 1059.6,426.9 1077.1,438.6 1088.0,435.7 1097.9,388.8 1107.1,441.6 1117.6,438.6 1127.6,438.6 1135.0,424.0" fill="none" stroke="#8250df" stroke-width="2"><title>Download container images</title></polyline>
<line x1="812.9" y1="394.7" x2="830.9" y2="372.7" stroke="#8250df" stroke-width="1"/>
<circle cx="830.9" cy="372.7" r="11" fill="white" stroke="#8250df" stroke-width="2"><title>R2: Download container images, inference, 24.0s</title></circle>
<text x="830.9" y="376.7" fill="#8250df" font-size="10" font-weight="bold" text-anchor="middle">R2</text>
<line x1="1028.3" y1="400.5" x2="1046.3" y2="422.5" stroke="#8250df" stroke-width="1"/>
<circle cx="1046.3" cy="422.5" r="11" fill="white" stroke="#8250df" stroke-width="2"><title>R4: Download container images, inference, 22.0s</title></circle>
<text x="1046.3" y="426.5" fill="#8250df" font-size="10" font-weight="bold" text-anchor="middle">R4</text>
<line x1="1097.9" y1="388.8" x2="1079.9" y2="366.8" stroke="#8250df" stroke-width="1"/>
<circle cx="1079.9" cy="366.8" r="11" fill="white" stroke="#8250df" stroke-width="2"><title>R7: Download container images, inference, 26.0s</title></circle>
<text x="1079.9" y="370.8" fill="#8250df" font-size="10" font-weight="bold" text-anchor="middle">R7</text>
<line x1="65" y1="587" x2="100" y2="587" stroke="#8250df" stroke-width="3"/>
<text x="110" y="591">Download container images</text>
<polyline points="65.0,356.6 76.4,365.4 85.7,383.0 98.8,374.2 105.3,380.0 110.1,374.2 111.1,371.2 115.7,353.7 143.3,374.2 152.9,383.0 163.1,371.2 172.8,383.0 182.4,113.4 201.4,133.9 212.2,139.8 218.8,128.0 229.4,139.8 240.9,133.9 259.5,131.0 269.7,136.8 278.6,133.9 289.5,136.8 298.1,142.7 308.8,116.3 319.2,110.5 329.7,133.9 339.2,116.3 349.1,131.0 355.9,133.9 369.1,119.2 378.5,391.7 386.8,388.8 394.9,391.7 408.5,391.7 415.3,388.8 427.3,380.0 437.7,391.7 446.7,397.6 456.6,383.0 466.9,394.7 476.9,406.4 485.7,400.5 496.3,388.8 506.4,403.5 516.8,397.6 526.5,403.5 536.4,406.4 556.1,397.6 565.4,353.7 574.6,391.7 583.8,400.5 605.1,391.7 612.9,385.9 623.3,406.4 632.8,353.7 644.5,377.1 654.0,385.9 664.2,377.1 673.0,385.9 683.8,374.2 693.5,391.7 704.8,397.6 714.5,385.9 724.5,394.7 734.4,394.7 742.2,394.7 754.4,394.7 764.4,397.6 773.1,388.8 783.1,385.9 803.0,397.6 812.9,327.3 823.3,377.1 832.2,385.9 842.4,362.4 852.0,383.0 861.8,383.0 871.3,400.5 881.3,350.7 890.4,374.2 901.2,377.1 911.2,388.8 921.0,406.4 930.8,391.7 930.8,391.7 940.0,400.5 948.9,400.5 952.7,394.7 960.0,394.7 969.2,403.5 969.2,409.3 973.5,397.6 984.3,383.0 984.3,400.5 1009.1,397.6 1028.3,362.4 1038.6,391.7 1046.6,397.6 1057.9,371.2 1059.6,377.1 1077.1,394.7 1088.0,397.6 1097.9,327.3 1107.1,371.2 1117.6,388.8 1127.6,391.7 1135.0,385.9" fill="none" stroke="#bf8700" stroke-width="2"><title>Execute GitHub Copilot CLI</title></polyline>
<line x1="812.9" y1="327.3" x2="794.9" y2="349.3" stroke="#bf8700" stroke-width="1"/>
<circle cx="794.9" cy="349.3" r="11" fill="white" stroke="#bf8700" stroke-width="2"><title>R3: Execute GitHub Copilot CLI, inference, 47.0s</title></circle>
<text x="794.9" y="353.3" fill="#bf8700" font-size="10" font-weight="bold" text-anchor="middle">R3</text>
<line x1="1028.3" y1="362.4" x2="1028.3" y2="332.4" stroke="#bf8700" stroke-width="1"/>
<circle cx="1028.3" cy="332.4" r="11" fill="white" stroke="#bf8700" stroke-width="2"><title>R5: Execute GitHub Copilot CLI, inference, 35.0s</title></circle>
<text x="1028.3" y="336.4" fill="#bf8700" font-size="10" font-weight="bold" text-anchor="middle">R5</text>
<line x1="1097.9" y1="327.3" x2="1115.9" y2="305.3" stroke="#bf8700" stroke-width="1"/>
<circle cx="1115.9" cy="305.3" r="11" fill="white" stroke="#bf8700" stroke-width="2"><title>R8: Execute GitHub Copilot CLI, inference, 47.0s</title></circle>
<text x="1115.9" y="309.3" fill="#bf8700" font-size="10" font-weight="bold" text-anchor="middle">R8</text>
<line x1="65" y1="609" x2="100" y2="609" stroke="#bf8700" stroke-width="3"/>
<text x="110" y="613">Execute GitHub Copilot CLI</text>
<polyline points="605.1,403.5 612.9,435.7 623.3,438.6 632.8,415.2 644.5,421.0 654.0,426.9" fill="none" stroke="#0550ae" stroke-width="2"><title>Install ripgrep</title></polyline>
<line x1="65" y1="631" x2="100" y2="631" stroke="#0550ae" stroke-width="3"/>
<text x="110" y="635">Install ripgrep</text>
<polyline points="65.0,441.6 76.4,435.7 85.7,438.6 98.8,444.5 105.3,435.7 110.1,421.0 111.1,421.0 115.7,438.6 143.3,406.4 152.9,415.2 163.1,406.4 172.8,403.5 182.4,418.1 201.4,403.5 212.2,415.2 218.8,418.1 229.4,418.1 240.9,418.1 259.5,418.1 269.7,415.2 278.6,415.2 289.5,418.1 298.1,418.1 308.8,383.0 319.2,403.5 329.7,400.5 339.2,409.3 349.1,412.3 355.9,418.1 369.1,418.1 378.5,418.1 386.8,415.2 394.9,412.3 408.5,415.2 415.3,415.2 427.3,412.3 437.7,412.3 446.7,418.1 456.6,415.2 466.9,415.2 476.9,406.4 485.7,406.4 496.3,403.5 506.4,406.4 516.8,406.4 526.5,400.5 536.4,406.4 556.1,415.2 565.4,391.7 574.6,400.5 583.8,418.1 605.1,388.8 612.9,415.2 623.3,418.1 632.8,397.6 644.5,415.2 654.0,415.2 664.2,409.3 673.0,415.2 683.8,415.2 693.5,418.1 704.8,409.3 714.5,412.3 724.5,412.3 734.4,412.3 742.2,412.3 754.4,415.2 764.4,412.3 773.1,412.3 783.1,415.2 803.0,415.2 812.9,394.7 823.3,418.1 832.2,409.3 842.4,415.2 852.0,415.2 861.8,412.3 871.3,412.3 881.3,409.3 890.4,409.3 901.2,403.5 911.2,403.5 921.0,415.2 930.8,409.3 930.8,415.2 940.0,415.2 948.9,397.6 952.7,397.6 960.0,409.3 969.2,409.3 969.2,412.3 973.5,444.5 984.3,412.3 984.3,403.5 1009.1,409.3 1028.3,400.5 1038.6,412.3 1046.6,415.2 1057.9,409.3 1059.6,409.3 1077.1,412.3 1088.0,409.3 1097.9,391.7 1107.1,412.3 1117.6,409.3 1127.6,415.2 1135.0,391.7" fill="none" stroke="#9a6700" stroke-width="2"><title>Set up job</title></polyline>
<line x1="65" y1="653" x2="100" y2="653" stroke="#9a6700" stroke-width="3"/>
<text x="110" y="657">Set up job</text>
<text x="65.0" y="490" text-anchor="start">2026-06-18</text>
<text x="198.8" y="490" text-anchor="middle">2026-07-01</text>
<text x="332.5" y="490" text-anchor="middle">2026-07-15</text>
<text x="466.2" y="490" text-anchor="middle">2026-07-28</text>
<text x="600.0" y="490" text-anchor="middle">2026-08-11</text>
<text x="733.8" y="490" text-anchor="middle">2026-08-25</text>
<text x="867.5" y="490" text-anchor="middle">2026-09-07</text>
<text x="1001.2" y="490" text-anchor="middle">2026-09-21</text>
<text x="1135.0" y="490" text-anchor="end">2026-10-04</text>
<line class="axis" x1="65" y1="465" x2="1135" y2="465"/>
<text x="65" y="697" font-size="16" font-weight="bold">Regression episodes</text>
<text x="65" y="725" fill="#0969da" font-weight="bold">R1</text>
<text x="99" y="725">2026-09-02  Copilot phase — AWF startup / inference  +87%</text>
<text x="65" y="747" fill="#8250df" font-weight="bold">R2</text>
<text x="99" y="747">2026-09-02  Download container images / inference  +153%</text>
<text x="65" y="769" fill="#bf8700" font-weight="bold">R3</text>
<text x="99" y="769">2026-09-02  Execute GitHub Copilot CLI / inference  +96%</text>
<text x="65" y="791" fill="#8250df" font-weight="bold">R4</text>
<text x="99" y="791">2026-09-24  Download container images / inference  +110%</text>
<text x="65" y="813" fill="#bf8700" font-weight="bold">R5</text>
<text x="99" y="813">2026-09-24  Execute GitHub Copilot CLI / inference  +56%</text>
<text x="65" y="835" fill="#0969da" font-weight="bold">R6</text>
<text x="99" y="835">2026-10-01  Copilot phase — AWF startup / inference  +125%</text>
<text x="65" y="857" fill="#8250df" font-weight="bold">R7</text>
<text x="99" y="857">2026-10-01  Download container images / inference  +148%</text>
<text x="65" y="879" fill="#bf8700" font-weight="bold">R8</text>
<text x="99" y="879">2026-10-01  Execute GitHub Copilot CLI / inference  +92%</text>
</svg>